<svg width="87" height="45" viewBox="0 0 87 45" fill="none" xmlns="http://www.w3.org/2000/svg">
<g clip-path="url(#clip0_249_8975)">
<g clip-path="url(#clip1_249_8975)">
<path d="M62.2084 22.9708L61.5907 23.2255C59.5356 24.0735 58.9804 26.7256 60.5236 28.3266L60.9871 28.8076L60.3212 28.8592C58.1043 29.0304 56.7572 31.3814 57.7299 33.3807L58.0223 33.9816L57.373 33.8247C55.2119 33.3028 53.2041 35.1219 53.5112 37.324L53.6035 37.9859L53.0344 37.636C51.1404 36.4717 48.6685 37.5815 48.2804 39.7709L48.1638 40.4286L47.7306 39.9201C46.2891 38.2274 43.5953 38.5192 42.5493 40.4814L42.2352 41.0709L41.9805 40.4533C41.1325 38.3981 38.4804 37.843 36.8794 39.3861L36.3984 39.8497L36.3469 39.1837C36.1756 36.9669 33.8247 35.6198 31.8253 36.5924L31.2244 36.8849L31.3814 36.2355C31.9032 34.0745 30.0841 32.0667 27.882 32.3737L27.2201 32.466L27.57 31.8969C28.7344 30.0029 27.6246 27.5311 25.4352 27.143L24.7774 27.0263L25.2859 26.5932C26.9786 25.1517 26.6869 22.4579 24.7246 21.4119L24.1351 21.0978L24.7527 20.8431C26.8079 19.9951 27.3631 17.343 25.8199 15.742L25.3563 15.261L26.0223 15.2095C28.2391 15.0382 29.5863 12.6873 28.6136 10.6879L28.3211 10.087L28.9705 10.2439C31.1316 10.7658 33.1394 8.94667 32.8323 6.74459L32.74 6.08271L33.3091 6.43259C35.2031 7.59693 37.6749 6.48713 38.0631 4.29775L38.1797 3.64001L38.6129 4.1485C40.0544 5.84117 42.7481 5.54945 43.7942 3.58721L44.1082 2.99767L44.3629 3.6153C45.2109 5.67047 47.863 6.22565 49.464 4.68248L49.945 4.2189L49.9966 4.88488C50.1678 7.10169 52.5188 8.44885 54.5182 7.47617L55.119 7.18372L54.9621 7.83307C54.4403 9.99416 56.2594 12.002 58.4615 11.6949L59.1233 11.6026L58.7734 12.1717C57.6091 14.0657 58.7189 16.5375 60.9083 16.9256L61.566 17.0423L61.0575 17.4754C59.3649 18.9169 59.6566 21.6107 61.6188 22.6567L62.2084 22.9708Z" fill="#1F1F1F"/>
<path d="M33.3779 25.4408L43.1019 29.9787L48.9362 11.8273" stroke="white" stroke-width="3.88437"/>
</g>
</g>
<defs>
<clipPath id="clip0_249_8975">
<rect width="86" height="44" fill="white" transform="translate(0.171875 0.0332031)"/>
</clipPath>
<clipPath id="clip1_249_8975">
<rect width="44" height="44" fill="white" transform="translate(21.1719 0.0332031)"/>
</clipPath>
</defs>
</svg>
