<svg width="87" height="45" viewBox="0 0 87 45" fill="none" xmlns="http://www.w3.org/2000/svg">
<g clip-path="url(#clip0_249_8950)">
<g clip-path="url(#clip1_249_8950)">
<path d="M62.7086 22.9708L62.091 23.2255C60.0358 24.0735 59.4806 26.7256 61.0238 28.3266L61.4874 28.8076L60.8214 28.8592C58.6046 29.0304 57.2574 31.3814 58.2301 33.3807L58.5226 33.9816L57.8732 33.8247C55.7121 33.3028 53.7043 35.1219 54.0114 37.324L54.1037 37.9859L53.5346 37.636C51.6406 36.4717 49.1688 37.5815 48.7807 39.7709L48.664 40.4286L48.2308 39.9201C46.7893 38.2274 44.0956 38.5192 43.0495 40.4814L42.7355 41.0709L42.4808 40.4533C41.6328 38.3981 38.9807 37.843 37.3797 39.3861L36.8987 39.8497L36.8471 39.1837C36.6759 36.9669 34.3249 35.6198 32.3255 36.5924L31.7247 36.8849L31.8816 36.2355C32.4035 34.0745 30.5843 32.0667 28.3823 32.3737L27.7204 32.466L28.0703 31.8969C29.2346 30.0029 28.1248 27.5311 25.9354 27.143L25.2777 27.0263L25.7862 26.5932C27.4788 25.1517 27.1871 22.4579 25.2249 21.4119L24.6353 21.0978L25.253 20.8431C27.3081 19.9951 27.8633 17.343 26.3201 15.742L25.8566 15.261L26.5226 15.2095C28.7394 15.0382 30.0865 12.6873 29.1138 10.6879L28.8214 10.087L29.4707 10.2439C31.6318 10.7658 33.6396 8.94667 33.3326 6.74459L33.2402 6.08271L33.8094 6.43259C35.7034 7.59693 38.1752 6.48713 38.5633 4.29775L38.68 3.64001L39.1131 4.1485C40.5546 5.84117 43.2484 5.54945 44.2944 3.58721L44.6085 2.99767L44.8632 3.6153C45.7112 5.67047 48.3633 6.22565 49.9643 4.68248L50.4453 4.2189L50.4968 4.88488C50.6681 7.10169 53.019 8.44885 55.0184 7.47617L55.6193 7.18372L55.4624 7.83307C54.9405 9.99416 56.7596 12.002 58.9617 11.6949L59.6236 11.6026L59.2737 12.1717C58.1094 14.0657 59.2192 16.5375 61.4085 16.9256L62.0663 17.0423L61.5578 17.4754C59.8651 18.9169 60.1568 21.6107 62.1191 22.6567L62.7086 22.9708Z" fill="#1F1F1F"/>
<path d="M33.8782 25.4408L43.6021 29.9787L49.4365 11.8273" stroke="white" stroke-width="3.88437"/>
</g>
</g>
<defs>
<clipPath id="clip0_249_8950">
<rect width="86" height="44" fill="white" transform="translate(0.171875 0.0332031)"/>
</clipPath>
<clipPath id="clip1_249_8950">
<rect width="44" height="44" fill="white" transform="translate(21.1719 0.0332031)"/>
</clipPath>
</defs>
</svg>
