<svg width="87" height="45" viewBox="0 0 87 45" fill="none" xmlns="http://www.w3.org/2000/svg">
<g clip-path="url(#clip0_249_8967)">
<g clip-path="url(#clip1_249_8967)">
<path d="M62.2084 22.9697L61.5907 23.2244C59.5356 24.0724 58.9804 26.7245 60.5236 28.3255L60.9871 28.8065L60.3212 28.8581C58.1043 29.0293 56.7572 31.3803 57.7299 33.3796L58.0223 33.9805L57.373 33.8236C55.2119 33.3017 53.2041 35.1209 53.5112 37.3229L53.6035 37.9848L53.0344 37.6349C51.1404 36.4706 48.6685 37.5804 48.2804 39.7698L48.1638 40.4275L47.7306 39.919C46.2891 38.2263 43.5953 38.5181 42.5493 40.4803L42.2352 41.0698L41.9805 40.4522C41.1325 38.397 38.4804 37.8419 36.8794 39.385L36.3984 39.8486L36.3469 39.1826C36.1756 36.9658 33.8247 35.6187 31.8253 36.5913L31.2244 36.8838L31.3814 36.2344C31.9032 34.0734 30.0841 32.0656 27.882 32.3726L27.2201 32.4649L27.57 31.8958C28.7344 30.0018 27.6246 27.53 25.4352 27.1419L24.7774 27.0252L25.2859 26.5921C26.9786 25.1506 26.6869 22.4568 24.7246 21.4108L24.1351 21.0967L24.7527 20.842C26.8079 19.994 27.3631 17.3419 25.8199 15.7409L25.3563 15.2599L26.0223 15.2084C28.2391 15.0371 29.5863 12.6862 28.6136 10.6868L28.3211 10.0859L28.9705 10.2428C31.1316 10.7647 33.1394 8.94557 32.8323 6.74349L32.74 6.08162L33.3091 6.43149C35.2031 7.59583 37.6749 6.48603 38.0631 4.29665L38.1797 3.63891L38.6129 4.1474C40.0544 5.84007 42.7481 5.54835 43.7942 3.58611L44.1082 2.99658L44.3629 3.6142C45.2109 5.66937 47.863 6.22455 49.464 4.68138L49.945 4.2178L49.9966 4.88379C50.1678 7.10059 52.5188 8.44776 54.5182 7.47507L55.119 7.18262L54.9621 7.83198C54.4403 9.99306 56.2594 12.0009 58.4615 11.6938L59.1233 11.6015L58.7734 12.1706C57.6091 14.0646 58.7189 16.5364 60.9083 16.9245L61.566 17.0412L61.0575 17.4743C59.3649 18.9158 59.6566 21.6096 61.6188 22.6556L62.2084 22.9697Z" fill="#1F1F1F"/>
<path d="M33.3779 25.4397L43.1019 29.9776L48.9362 11.8262" stroke="white" stroke-width="3.88437"/>
</g>
</g>
<defs>
<clipPath id="clip0_249_8967">
<rect width="86" height="44" fill="white" transform="translate(0.171875 0.0332031)"/>
</clipPath>
<clipPath id="clip1_249_8967">
<rect width="44" height="44" fill="white" transform="translate(21.1719 0.0332031)"/>
</clipPath>
</defs>
</svg>
