<svg width="87" height="45" viewBox="0 0 87 45" fill="none" xmlns="http://www.w3.org/2000/svg">
<g clip-path="url(#clip0_249_8958)">
<g clip-path="url(#clip1_249_8958)">
<path d="M62.7086 22.9698L62.091 23.2245C60.0358 24.0725 59.4806 26.7246 61.0238 28.3256L61.4874 28.8066L60.8214 28.8582C58.6046 29.0294 57.2574 31.3804 58.2301 33.3798L58.5226 33.9806L57.8732 33.8237C55.7121 33.3019 53.7043 35.121 54.0114 37.3231L54.1037 37.9849L53.5346 37.635C51.6406 36.4707 49.1688 37.5805 48.7807 39.7699L48.664 40.4276L48.2308 39.9191C46.7893 38.2265 44.0956 38.5182 43.0495 40.4804L42.7355 41.07L42.4808 40.4523C41.6328 38.3972 38.9807 37.842 37.3797 39.3852L36.8987 39.8487L36.8471 39.1828C36.6759 36.9659 34.3249 35.6188 32.3255 36.5915L31.7247 36.8839L31.8816 36.2346C32.4035 34.0735 30.5843 32.0657 28.3823 32.3728L27.7204 32.4651L28.0703 31.8959C29.2346 30.002 28.1248 27.5301 25.9354 27.142L25.2777 27.0254L25.7862 26.5922C27.4788 25.1507 27.1871 22.4569 25.2249 21.4109L24.6353 21.0968L25.253 20.8421C27.3081 19.9941 27.8633 17.342 26.3201 15.741L25.8566 15.26L26.5226 15.2085C28.7394 15.0372 30.0865 12.6863 29.1138 10.6869L28.8214 10.086L29.4707 10.243C31.6318 10.7648 33.6396 8.94569 33.3326 6.74361L33.2402 6.08174L33.8094 6.43162C35.7034 7.59596 38.1752 6.48616 38.5633 4.29677L38.68 3.63903L39.1131 4.14752C40.5546 5.84019 43.2484 5.54847 44.2944 3.58623L44.6085 2.9967L44.8632 3.61432C45.7112 5.6695 48.3633 6.22467 49.9643 4.6815L50.4453 4.21792L50.4968 4.88391C50.6681 7.10072 53.019 8.44788 55.0184 7.4752L55.6193 7.18274L55.4624 7.8321C54.9405 9.99318 56.7596 12.001 58.9617 11.6939L59.6236 11.6016L59.2737 12.1707C58.1094 14.0647 59.2192 16.5365 61.4085 16.9247L62.0663 17.0413L61.5578 17.4745C59.8651 18.916 60.1568 21.6097 62.1191 22.6558L62.7086 22.9698Z" fill="#1F1F1F"/>
<path d="M33.8782 25.4399L43.6021 29.9777L49.4365 11.8264" stroke="white" stroke-width="3.88437"/>
</g>
</g>
<defs>
<clipPath id="clip0_249_8958">
<rect width="86" height="44" fill="white" transform="translate(0.171875 0.0332031)"/>
</clipPath>
<clipPath id="clip1_249_8958">
<rect width="44" height="44" fill="white" transform="translate(21.1719 0.0332031)"/>
</clipPath>
</defs>
</svg>
