<svg width="64" height="64" viewBox="0 0 64 64" fill="none" xmlns="http://www.w3.org/2000/svg">
<path d="M55.0146 17.9263L60.3334 19.8742L58.0666 25.0645L57.8914 25.4656L58.2359 25.7357L62.6919 29.2311L58.9321 33.4669L58.6416 33.7943L58.8856 34.1576L62.0437 38.8592L57.1586 41.7259L56.781 41.9475L56.9009 42.3685L58.4518 47.8158L52.9203 49.0329L52.4928 49.1269L52.4767 49.5643L52.2679 55.2243L46.6315 54.672L46.1958 54.6293L46.0453 55.0403L44.0974 60.3592L38.9071 58.0924L38.506 57.9172L38.2358 58.2616L34.7405 62.7177L30.5046 58.9579L30.1773 58.6673L29.8139 58.9114L25.1123 62.0695L22.2456 57.1843L22.024 56.8068L21.603 56.9267L16.1558 58.4776L14.9387 52.9461L14.8446 52.5186L14.4072 52.5025L8.74715 52.2937L9.29893 46.6572L9.34157 46.2216L8.93061 46.0711L3.61238 44.1232L5.87917 38.9329L6.05435 38.5317L5.70995 38.2616L1.25388 34.7662L5.01366 30.5304L5.30423 30.203L5.06016 29.8397L1.90205 25.1381L6.78661 22.2714L7.16409 22.0498L7.04428 21.6288L5.4939 16.1816L11.0255 14.9644L11.453 14.8704L11.4691 14.433L11.6779 8.77291L17.3144 9.32469L17.75 9.36733L17.9005 8.95636L19.8484 3.63814L25.0387 5.90492L25.4398 6.08011L25.71 5.7357L29.2053 1.27964L33.4412 5.03941L33.7685 5.32999L34.1319 5.08592L38.8335 1.92781L41.7002 6.81236L41.9218 7.18985L42.3427 7.07003L47.79 5.51966L49.0071 11.0513L49.1012 11.4787L49.5386 11.4949L55.1986 11.7036L54.6462 17.3401L54.6035 17.7757L55.0146 17.9263Z" fill="#EF60A0" stroke="white" stroke-width="1.13102"/>
</svg>
