<svg width="136" height="135" viewBox="0 0 136 135" fill="none" xmlns="http://www.w3.org/2000/svg">
<path d="M107.504 25.6396L119.686 26.7546L117.834 38.8454L117.717 39.6105L118.428 39.9158L129.668 44.7392L124.171 55.6662L123.823 56.3577L124.405 56.8678L133.605 64.929L124.999 73.6227L124.454 74.1728L124.85 74.8379L131.109 85.347L120.239 90.9562L119.551 91.3111L119.722 92.066L122.427 103.996L110.356 105.97L109.592 106.095L109.521 106.865L108.406 119.048L96.3154 117.196L95.5502 117.079L95.245 117.79L90.4216 129.03L79.4946 123.532L78.8031 123.184L78.293 123.767L70.2318 132.966L61.5381 124.36L60.988 123.816L60.3229 124.212L49.8137 130.471L44.2046 119.601L43.8497 118.913L43.0948 119.084L31.1652 121.788L29.1899 109.718L29.0649 108.954L28.2942 108.883L16.1132 107.768L17.965 95.6771L18.0822 94.912L17.3709 94.6067L6.13096 89.7833L11.6285 78.8563L11.9764 78.1648L11.3943 77.6547L2.19425 69.5935L10.799 60.9002L11.3435 60.3501L10.9475 59.6851L4.68955 49.1755L15.56 43.5663L16.2478 43.2114L16.0767 42.4566L13.3724 30.5269L25.4432 28.5516L26.207 28.4266L26.2776 27.6559L27.3928 15.4749L39.4837 17.3268L40.2488 17.444L40.554 16.7327L45.3775 5.4927L56.3045 10.9903L56.9959 11.3382L57.506 10.756L65.5673 1.55599L74.2606 10.1608L74.8107 10.7053L75.4757 10.3093L85.9853 4.05129L91.5945 14.9217L91.9494 15.6095L92.7042 15.4384L104.634 12.7342L106.608 24.8052L106.733 25.5691L107.504 25.6396Z" fill="#EF60A0" stroke="white" stroke-width="2"/>
</svg>
