<svg width="100" height="99" viewBox="0 0 100 99" fill="none" xmlns="http://www.w3.org/2000/svg">
<path d="M90.9768 39.7833L97.9517 45.2551L92.0674 51.8844L91.6375 52.3688L91.9986 52.9064L96.9409 60.2642L89.2959 64.7508L88.7373 65.0786L88.9146 65.7015L91.3415 74.2271L82.6836 76.1315L82.051 76.2706L82.0272 76.9179L81.7012 85.7761L72.879 84.9124L72.2345 84.8494L72.0118 85.4574L68.9636 93.7813L60.841 90.2331L60.2475 89.9739L59.8478 90.4834L54.376 97.4583L47.7466 91.574L47.2623 91.1441L46.7247 91.5052L39.3668 96.4475L34.8802 88.8025L34.5524 88.2439L33.9295 88.4212L25.4039 90.8481L23.4995 82.1902L23.3604 81.5576L22.7131 81.5338L13.855 81.2078L14.7186 72.3856L14.7817 71.7411L14.1736 71.5184L5.84964 68.4702L9.39701 60.3472L9.65617 59.7538L9.14671 59.3541L2.17271 53.8826L8.05703 47.2532L8.48695 46.7689L8.12584 46.2312L3.18356 38.8734L10.8286 34.3868L11.3871 34.059L11.2098 33.4361L8.78291 24.9105L17.4399 23.0058L18.0724 22.8666L18.0963 22.2195L18.4231 13.3615L27.2454 14.2252L27.8899 14.2883L28.1126 13.6802L31.1609 5.35622L39.2838 8.9036L39.8773 9.16275L40.277 8.65329L45.7485 1.67929L52.3778 7.56362L52.8622 7.99353L53.3998 7.63242L60.7577 2.69014L65.2443 10.3351L65.5721 10.8937L66.1949 10.7164L74.7206 8.28949L76.6252 16.9465L76.7644 17.579L77.4115 17.6029L86.2695 17.9297L85.4059 26.752L85.3428 27.3965L85.9509 27.6192L94.2747 30.6674L90.7265 38.79L90.4673 39.3835L90.9768 39.7833Z" fill="#EF60A0" stroke="#1F1F1F" stroke-width="1.67339"/>
</svg>
