<svg width="177" height="177" viewBox="0 0 177 177" fill="none" xmlns="http://www.w3.org/2000/svg">
<path d="M161.888 71.1475L174.647 81.157L163.883 93.2839L163.269 93.976L163.785 94.7441L172.826 108.204L158.841 116.411L158.043 116.879L158.296 117.769L162.735 133.365L146.898 136.849L145.994 137.048L145.96 137.972L145.364 154.176L129.225 152.597L128.304 152.506L127.986 153.375L122.41 168.602L107.551 162.111L106.703 161.741L106.132 162.469L96.1229 175.228L83.9959 164.464L83.3039 163.85L82.5358 164.366L69.0761 173.406L60.8688 159.422L60.4005 158.624L59.5105 158.877L43.9148 163.316L40.4311 147.479L40.2323 146.575L39.3075 146.541L23.1034 145.944L24.6832 129.806L24.7733 128.885L23.9045 128.567L8.67768 122.991L15.1668 108.132L15.5371 107.284L14.8092 106.713L2.0518 96.7039L12.8159 84.5769L13.4301 83.8849L12.9142 83.1167L3.87334 69.657L17.8582 61.4498L18.6563 60.9814L18.4029 60.0915L13.9635 44.4957L29.7997 41.0115L30.7033 40.8127L30.7374 39.888L31.3353 23.6843L47.4738 25.2641L48.3947 25.3543L48.7128 24.4855L54.2889 9.25864L69.1481 15.7478L69.996 16.1181L70.5671 15.3902L80.576 2.63275L92.703 13.3968L93.395 14.0111L94.1631 13.4952L107.623 4.4543L115.83 18.4392L116.298 19.2372L117.188 18.9839L132.784 14.5444L136.268 30.3806L136.467 31.2843L137.392 31.3184L153.596 31.9162L152.016 48.0548L151.926 48.9756L152.794 49.2938L168.021 54.8698L161.53 69.7284L161.16 70.5764L161.888 71.1475Z" fill="white" stroke="#EF60A0" stroke-width="2.39088"/>
</svg>
