<svg width="140" height="140" viewBox="0 0 140 140" fill="none" xmlns="http://www.w3.org/2000/svg">
<path d="M133.932 42.984L128.404 55.6415L139.271 64.1657L130.102 74.4957L137.804 85.9616L125.89 92.9527L129.672 106.237L116.183 109.205L115.673 123.008L101.928 121.661L97.1774 134.632L84.5198 129.104L75.9956 139.971L65.6656 130.802L54.1998 138.504L47.2086 126.591L33.9244 130.373L30.9562 116.883L17.153 116.374L18.4986 102.628L5.5291 97.8778L11.0571 85.2202L0.189941 76.696L9.35896 66.366L1.65726 54.9002L13.5693 47.9091L9.78839 34.6248L23.2783 31.6566L23.7874 17.8534L37.5333 19.1991L42.2835 6.22954L54.9411 11.7575L63.4653 0.890381L73.7953 10.0594L85.2611 2.3577L92.2522 14.2697L105.536 10.4888L108.505 23.9787L122.308 24.4879L120.961 38.2337L133.932 42.984Z" fill="#EF60A0"/>
</svg>
