<svg width="99" height="99" viewBox="0 0 99 99" fill="none" xmlns="http://www.w3.org/2000/svg">
<path d="M90.7388 39.7833L97.7137 45.2551L91.8294 51.8844L91.3995 52.3688L91.7606 52.9064L96.7028 60.2642L89.0578 64.7508L88.4993 65.0786L88.6766 65.7015L91.1035 74.2271L82.4456 76.1315L81.813 76.2706L81.7892 76.9179L81.4632 85.7761L72.641 84.9124L71.9965 84.8494L71.7738 85.4574L68.7256 93.7813L60.603 90.2331L60.0095 89.9739L59.6097 90.4834L54.1379 97.4583L47.5086 91.574L47.0242 91.1441L46.4866 91.5052L39.1287 96.4475L34.6421 88.8025L34.3144 88.2439L33.6915 88.4212L25.1659 90.8481L23.2615 82.1902L23.1223 81.5576L22.4751 81.5338L13.6169 81.2078L14.4805 72.3856L14.5436 71.7411L13.9355 71.5184L5.6116 68.4702L9.15898 60.3472L9.41813 59.7538L8.90867 59.3541L1.93467 53.8826L7.819 47.2532L8.24891 46.7689L7.8878 46.2312L2.94552 38.8734L10.5905 34.3868L11.1491 34.059L10.9718 33.4361L8.54487 24.9105L17.2019 23.0058L17.8344 22.8666L17.8582 22.2195L18.1851 13.3615L27.0074 14.2252L27.6519 14.2883L27.8746 13.6802L30.9228 5.35622L39.0458 8.9036L39.6392 9.16275L40.0389 8.65329L45.5104 1.67929L52.1398 7.56362L52.6241 7.99353L53.1617 7.63242L60.5196 2.69014L65.0062 10.3351L65.334 10.8937L65.9569 10.7164L74.4825 8.28949L76.3872 16.9465L76.5264 17.579L77.1735 17.6029L86.0315 17.9297L85.1678 26.752L85.1047 27.3965L85.7128 27.6192L94.0367 30.6674L90.4885 38.79L90.2292 39.3835L90.7388 39.7833Z" fill="#EF60A0" stroke="#1F1F1F" stroke-width="1.67339"/>
</svg>
