<svg width="140" height="140" viewBox="0 0 140 140" fill="none" xmlns="http://www.w3.org/2000/svg">
<path d="M133.94 42.7618L128.412 55.4194L139.279 63.9436L130.11 74.2736L137.811 85.7394L125.898 92.7305L129.68 106.015L116.19 108.983L115.681 122.786L101.935 121.439L97.1852 134.41L84.5276 128.882L76.0034 139.749L65.6734 130.58L54.2076 138.282L47.2164 126.368L33.9322 130.151L30.964 116.661L17.1608 116.152L18.5064 102.406L5.53691 97.6556L11.0649 84.998L0.197754 76.4739L9.36678 66.1438L1.66508 54.678L13.5771 47.6869L9.7962 34.4027L23.2861 31.4344L23.7952 17.6313L37.5411 18.9769L42.2913 6.00737L54.9489 11.5354L63.4731 0.668213L73.8031 9.83724L85.2689 2.13554L92.2601 14.0476L105.544 10.2667L108.513 23.7565L122.316 24.2657L120.969 38.0115L133.94 42.7618Z" fill="#EF60A0"/>
</svg>
