<svg width="177" height="177" viewBox="0 0 177 177" fill="none" xmlns="http://www.w3.org/2000/svg">
<path d="M162.029 71.1475L174.788 81.157L164.024 93.2839L163.409 93.976L163.925 94.7441L172.966 108.204L158.981 116.411L158.183 116.879L158.437 117.769L162.876 133.365L147.038 136.849L146.134 137.048L146.1 137.972L145.504 154.176L129.366 152.597L128.445 152.506L128.127 153.375L122.551 168.602L107.692 162.111L106.844 161.741L106.273 162.469L96.2635 175.228L84.1366 164.464L83.4445 163.85L82.6764 164.366L69.2167 173.406L61.0095 159.422L60.5411 158.624L59.6512 158.877L44.0554 163.316L40.5717 147.479L40.3729 146.575L39.4481 146.541L23.244 145.944L24.8238 129.806L24.914 128.885L24.0451 128.567L8.81831 122.991L15.3075 108.132L15.6777 107.284L14.9498 106.713L2.19243 96.7039L12.9565 84.5769L13.5708 83.8849L13.0548 83.1167L4.01397 69.657L17.9988 61.4498L18.7969 60.9814L18.5436 60.0915L14.1041 44.4957L29.9403 41.0115L30.8439 40.8127L30.878 39.888L31.4759 23.6843L47.6144 25.2641L48.5353 25.3543L48.8534 24.4855L54.4295 9.25864L69.2888 15.7478L70.1366 16.1181L70.7077 15.3902L80.7166 2.63275L92.8436 13.3968L93.5356 14.0111L94.3037 13.4952L107.763 4.4543L115.971 18.4392L116.439 19.2372L117.329 18.9839L132.925 14.5444L136.409 30.3806L136.608 31.2843L137.532 31.3184L153.736 31.9162L152.156 48.0548L152.066 48.9756L152.935 49.2938L168.162 54.8698L161.671 69.7284L161.301 70.5764L162.029 71.1475Z" fill="white" stroke="#EF60A0" stroke-width="2.39088"/>
</svg>
