<svg width="21" height="20" viewBox="0 0 21 20" fill="none" xmlns="http://www.w3.org/2000/svg">
<path d="M8.75696 5.15715C8.50723 2.28458 5.51046 0.875105 5.38363 0.817575C5.26507 0.761841 5.1322 0.744035 5.00315 0.766583C1.54353 1.34057 1.02314 3.35411 1.00222 3.43779C0.973761 3.5544 0.978288 3.67663 1.0153 3.79081C5.14175 16.5938 13.7176 18.9669 16.5365 19.7475C16.7536 19.8076 16.9327 19.856 17.0687 19.9004C17.2239 19.9511 17.3925 19.9413 17.5407 19.873C17.627 19.8338 19.6641 18.8741 20.1622 15.7439C20.1843 15.6073 20.1623 15.4671 20.0995 15.3438C20.055 15.2575 18.9894 13.2296 16.0345 12.5131C15.9342 12.4875 15.8293 12.4866 15.7286 12.5105C15.6279 12.5344 15.5346 12.5824 15.4566 12.6504C14.5243 13.4467 13.2364 14.2952 12.6808 14.3828C8.9557 12.5615 6.87548 9.06655 6.79703 8.40365C6.75127 8.03101 7.60506 6.72221 8.58699 5.65792C8.64871 5.59093 8.69571 5.51177 8.72499 5.42552C8.75426 5.33928 8.76515 5.24786 8.75696 5.15715Z" fill="white"/>
</svg>
