<svg width="92" height="92" viewBox="0 0 92 92" fill="none" xmlns="http://www.w3.org/2000/svg">
<path d="M78.9549 25.393L86.6203 28.2003L83.3534 35.6804L83.101 36.2585L83.5973 36.6479L90.0193 41.6853L84.6008 47.7899L84.182 48.2617L84.5338 48.7853L89.0851 55.5611L82.0448 59.6926L81.5006 60.0119L81.6734 60.6187L83.9086 68.4691L75.9366 70.2232L75.3206 70.3587L75.2973 70.9891L74.9964 79.1462L66.8733 78.3502L66.2455 78.2887L66.0285 78.881L63.2213 86.5464L55.7411 83.2796L55.163 83.0271L54.7737 83.5235L49.7363 89.9454L43.6317 84.5269L43.1599 84.1082L42.6362 84.4599L35.8604 89.0113L31.7289 81.9709L31.4096 81.4268L30.8028 81.5996L22.9524 83.8347L21.1983 75.8628L21.0628 75.2467L20.4324 75.2235L12.2752 74.9226L13.0705 66.7994L13.1319 66.1716L12.5396 65.9547L4.87512 63.1474L8.14196 55.6673L8.39443 55.0892L7.89808 54.6998L1.47609 49.6624L6.8946 43.5578L7.31337 43.086L6.96162 42.5624L2.41022 35.7865L9.44974 31.6551L9.99377 31.3358L9.82109 30.7291L7.58672 22.8786L15.5587 21.1245L16.1748 20.9889L16.1981 20.3586L16.4989 12.2014L24.6222 12.9966L25.2499 13.0581L25.4669 12.4658L28.2741 4.80126L35.7543 8.0681L36.3324 8.32058L36.7217 7.82423L41.7591 1.40224L47.8637 6.82075L48.3355 7.23952L48.8592 6.88777L55.635 2.33637L59.7665 9.37589L60.0858 9.91991L60.6925 9.74724L68.5429 7.51287L70.297 15.4849L70.4326 16.1009L71.063 16.1242L79.2201 16.4251L78.424 24.5482L78.3625 25.1761L78.9549 25.393Z" fill="#EF60A0" stroke="#1F1F1F" stroke-width="1.63"/>
</svg>
