<svg width="29" height="28" viewBox="0 0 29 28" fill="none" xmlns="http://www.w3.org/2000/svg">
<path d="M12.2246 6.42389C11.8599 2.22913 7.4838 0.170885 7.2986 0.0868749C7.12547 0.005488 6.93144 -0.0205151 6.74299 0.0124118C1.69095 0.8506 0.931039 3.79094 0.90049 3.91314C0.858926 4.08342 0.865537 4.26191 0.919583 4.42865C6.94538 23.1247 19.4686 26.5901 23.585 27.7299C23.902 27.8177 24.1636 27.8884 24.3621 27.9533C24.5887 28.0273 24.8349 28.013 25.0514 27.9132C25.1774 27.8559 28.1521 26.4545 28.8796 21.8836C28.9118 21.6841 28.8797 21.4794 28.7879 21.2994C28.723 21.1733 27.1669 18.212 22.8519 17.1657C22.7055 17.1282 22.5522 17.1269 22.4052 17.1619C22.2582 17.1968 22.1219 17.2669 22.008 17.3662C20.6466 18.5289 18.7659 19.7681 17.9545 19.896C12.5148 17.2363 9.47713 12.1327 9.36257 11.1647C9.29574 10.6206 10.5425 8.70934 11.9764 7.15515C12.0665 7.05734 12.1352 6.94174 12.1779 6.8158C12.2207 6.68985 12.2366 6.55635 12.2246 6.42389Z" fill="white"/>
</svg>
