<svg width="100" height="99" viewBox="0 0 100 99" fill="none" xmlns="http://www.w3.org/2000/svg">
<path d="M90.8578 39.7833L97.8327 45.2551L91.9484 51.8844L91.5185 52.3688L91.8796 52.9064L96.8219 60.2642L89.1769 64.7508L88.6183 65.0786L88.7956 65.7015L91.2225 74.2271L82.5646 76.1315L81.932 76.2706L81.9082 76.9179L81.5822 85.7761L72.76 84.9124L72.1155 84.8494L71.8928 85.4574L68.8446 93.7813L60.722 90.2331L60.1285 89.9739L59.7288 90.4834L54.2569 97.4583L47.6276 91.574L47.1432 91.1441L46.6056 91.5052L39.2478 96.4475L34.7612 88.8025L34.4334 88.2439L33.8105 88.4212L25.2849 90.8481L23.3805 82.1902L23.2414 81.5576L22.5941 81.5338L13.7359 81.2078L14.5996 72.3856L14.6627 71.7411L14.0546 71.5184L5.73062 68.4702L9.27799 60.3472L9.53715 59.7538L9.02769 59.3541L2.05369 53.8826L7.93801 47.2532L8.36793 46.7689L8.00682 46.2312L3.06454 38.8734L10.7095 34.3868L11.2681 34.059L11.0908 33.4361L8.66389 24.9105L17.3209 23.0058L17.9534 22.8666L17.9773 22.2195L18.3041 13.3615L27.1264 14.2252L27.7709 14.2883L27.9936 13.6802L31.0418 5.35622L39.1648 8.9036L39.7582 9.16275L40.1579 8.65329L45.6294 1.67929L52.2588 7.56362L52.7432 7.99353L53.2808 7.63242L60.6387 2.69014L65.1252 10.3351L65.453 10.8937L66.0759 10.7164L74.6015 8.28949L76.5062 16.9465L76.6454 17.579L77.2925 17.6029L86.1505 17.9297L85.2868 26.752L85.2238 27.3965L85.8318 27.6192L94.1557 30.6674L90.6075 38.79L90.3483 39.3835L90.8578 39.7833Z" fill="#EF60A0" stroke="#1F1F1F" stroke-width="1.67339"/>
</svg>
