<svg width="177" height="177" viewBox="0 0 177 177" fill="none" xmlns="http://www.w3.org/2000/svg">
<path d="M162.169 71.1475L174.928 81.157L164.164 93.2839L163.55 93.976L164.066 94.7441L173.107 108.204L159.122 116.411L158.324 116.879L158.577 117.769L163.017 133.365L147.179 136.849L146.275 137.048L146.241 137.972L145.645 154.176L129.506 152.597L128.585 152.506L128.267 153.375L122.691 168.602L107.833 162.111L106.985 161.741L106.414 162.469L96.4041 175.228L84.2772 164.464L83.5852 163.85L82.817 164.366L69.3573 173.406L61.1501 159.422L60.6817 158.624L59.7918 158.877L44.196 163.316L40.7123 147.479L40.5135 146.575L39.5888 146.541L23.3846 145.944L24.9644 129.806L25.0546 128.885L24.1858 128.567L8.95893 122.991L15.4481 108.132L15.8184 107.284L15.0905 106.713L2.33305 96.7039L13.0971 84.5769L13.7114 83.8849L13.1954 83.1167L4.15459 69.657L18.1395 61.4498L18.9375 60.9814L18.6842 60.0915L14.2447 44.4957L30.0809 41.0115L30.9846 40.8127L31.0187 39.888L31.6165 23.6843L47.7551 25.2641L48.6759 25.3543L48.9941 24.4855L54.5701 9.25864L69.4294 15.7478L70.2773 16.1181L70.8483 15.3902L80.8572 2.63275L92.9842 13.3968L93.6763 14.0111L94.4444 13.4952L107.904 4.4543L116.111 18.4392L116.58 19.2372L117.47 18.9839L133.065 14.5444L136.55 30.3806L136.748 31.2843L137.673 31.3184L153.877 31.9162L152.297 48.0548L152.207 48.9756L153.076 49.2938L168.302 54.8698L161.812 69.7284L161.441 70.5764L162.169 71.1475Z" fill="white" stroke="#EF60A0" stroke-width="2.39088"/>
</svg>
