<svg width="92" height="92" viewBox="0 0 92 92" fill="none" xmlns="http://www.w3.org/2000/svg">
<path d="M79.6543 25.5093L87.3673 28.3339L84.0801 35.8606L83.8261 36.4423L84.3255 36.834L90.7874 41.9027L85.3352 48.0453L84.9139 48.52L85.2678 49.0469L89.8475 55.8648L82.7634 60.0219L82.2158 60.3432L82.3897 60.9538L84.6388 68.853L76.6173 70.6179L75.9974 70.7543L75.974 71.3886L75.6712 79.5964L67.4976 78.7954L66.8659 78.7335L66.6476 79.3296L63.8229 87.0426L56.2963 83.7554L55.7146 83.5014L55.3228 84.0008L50.2541 90.4627L44.1116 85.0105L43.6369 84.5892L43.11 84.9431L36.2921 89.5228L32.1349 82.4386L31.8136 81.8911L31.2031 82.065L23.3039 84.314L21.5389 76.2926L21.4025 75.6727L20.7682 75.6493L12.5604 75.3465L13.3605 67.1728L13.4224 66.5412L12.8264 66.3229L5.11428 63.4982L8.40142 55.9716L8.65547 55.3899L8.15603 54.9981L1.69414 49.9294L7.14632 43.7869L7.56769 43.3122L7.21375 42.7853L2.63408 35.9673L9.71733 31.8102L10.2647 31.4889L10.091 30.8785L7.84273 22.9792L15.8643 21.2142L16.4842 21.0778L16.5076 20.4435L16.8103 12.2357L24.984 13.0358L25.6157 13.0977L25.834 12.5017L28.6586 4.78958L36.1853 8.07671L36.767 8.33076L37.1587 7.83132L42.2274 1.36943L48.37 6.82161L48.8447 7.24298L49.3716 6.88904L56.1895 2.30937L60.3467 9.39262L60.6679 9.94003L61.2784 9.76628L69.1776 7.51803L70.9426 15.5396L71.079 16.1595L71.7133 16.1829L79.9211 16.4856L79.1201 24.6592L79.0582 25.291L79.6543 25.5093Z" fill="#EF60A0" stroke="#1F1F1F" stroke-width="1.64012"/>
</svg>
